# xmcd
# Track frame offsets:
# 150
# 11583
# 21811
# 32105
# 43555
# 56882
# 68410
# 79874
# 92688
# 103467
# 114381
# 126213
# 138477
# 151224
# 164753
# 176353
#
# Disc length: 2491 seconds
# Revision: 0
# Processed by: cddbd v1.5.1PL2 Copyright (c) Steve Scherf et al.
# Submitted via: VisiTrax 2.10.0.248 - For more info visit www.synapsa.com
#
DISCID=d309b910
DTITLE=Kitty Wells - It Wasn't God Who Made Honky Tonk Angels
DYEAR=2004
DGENRE=Country
TTITLE0=It Wasn't God Who Made Honky Tonk Angels
TTITLE1=Make Up Your Mind
TTITLE2=Heard The Jukebox Playing
TTITLE3=Crying Steel Guitar Waltz
TTITLE4=I Don't Claim To Be An Angel
TTITLE5=Honky Tonk Waltz
TTITLE6=You Said You Could Do Without Me
TTITLE7=My Cold Cold Heart Is Melting Now
TTITLE8=The Things I Might Have Been
TTITLE9=Divided By Two
TTITLE10=Paying For That Back Street Affair
TTITLE11=I'll Be All Smiles (Tonight)
TTITLE12=Love Or Hate
TTITLE13=Death At The Bar
TTITLE14=Hey Joe
TTITLE15=I Don't Want Your Money I Want Your Time
EXTD=
EXTT0=
EXTT1=
EXTT2=
EXTT3=
EXTT4=
EXTT5=
EXTT6=
EXTT7=
EXTT8=
EXTT9=
EXTT10=
EXTT11=
EXTT12=
EXTT13=
EXTT14=
EXTT15=
PLAYORDER=
